# Created By Carrara 5.0

mtllib Ring.Mtl

# Number of vertices: 72
v 7.191473 4.104002 0
v 6.592186 3.762 1.198578
v 7.612 0.000001 1.198579
v 8.303998 0.000001 0.000001
v 5.393603 3.078001 1.198578
v 6.227999 0.000001 1.198578
v 4.794314 2.736001 0
v 5.535999 0 0
v 5.393603 3.078001 -1.198578
v 6.227999 0 -1.198577
v 6.592186 3.762 -1.198578
v 7.612 0.000001 -1.198577
v 4.151999 7.108337 0
v 3.806 6.515977 1.198578
v 3.114 5.331252 1.198578
v 2.767999 4.738892 0
v 3.114 5.331252 -1.198578
v 3.806 6.515977 -1.198578
v -0.000001 8.207999 -0.000001
v -0.000001 7.524001 1.198577
v -0.000001 6.156 1.198577
v 0 5.472 0
v 0 6.156 -1.198578
v -0.000001 7.524001 -1.198578
v -4.151999 7.108336 -0.000001
v -3.806 6.515976 1.198577
v -3.114001 5.331251 1.198577
v -2.768 4.738891 -0.000001
v -3.114001 5.331251 -1.198579
v -3.806 6.515976 -1.198579
v -7.191473 4.103999 -0.000001
v -6.592187 3.761999 1.198577
v -5.393604 3.078 1.198577
v -4.794315 2.736 -0.000001
v -5.393604 3.078 -1.198579
v -6.592187 3.761999 -1.198579
v -8.303998 -0.000001 -0.000001
v -7.612 -0.000001 1.198577
v -6.227999 0 1.198577
v -5.535999 0 0
v -6.227999 -0.000001 -1.198578
v -7.612 -0.000001 -1.198579
v -7.191472 -4.104 0
v -6.592186 -3.762 1.198578
v -5.393603 -3.078001 1.198578
v -4.794314 -2.736001 0
v -5.393603 -3.078001 -1.198578
v -6.592186 -3.762 -1.198578
v -4.151999 -7.108337 0
v -3.806 -6.515977 1.198578
v -3.114 -5.331252 1.198578
v -2.767999 -4.738892 0
v -3.114 -5.331252 -1.198578
v -3.806 -6.515977 -1.198578
v 0.000001 -8.208 0.000001
v 0.000001 -7.524001 1.198578
v 0 -6.156 1.198578
v 0 -5.472 0
v 0.000001 -6.156 -1.198577
v 0.000001 -7.524001 -1.198577
v 4.151999 -7.108336 0.000001
v 3.806 -6.515976 1.198579
v 3.114001 -5.331251 1.198579
v 2.768 -4.738891 0.000001
v 3.114001 -5.331251 -1.198577
v 3.806 -6.515976 -1.198577
v 7.191473 -4.103999 0.000001
v 6.592187 -3.761999 1.198579
v 5.393604 -3.078 1.198579
v 4.794315 -2.736 0.000001
v 5.393604 -3.078 -1.198577
v 6.592187 -3.761999 -1.198577

# Number of normals: 72
vn 0.877456 0.479657 0
vn 0.432753 0.273925 0.858889
vn 0.565746 0 0.82458
vn 1 0 0
vn -0.428972 -0.231753 0.873083
vn -0.415212 0 0.909724
vn -0.841188 -0.540744 0
vn -1 0 0
vn -0.428972 -0.231753 -0.873083
vn -0.415212 0 -0.909725
vn 0.432753 0.273925 -0.858889
vn 0.565746 0 -0.824579
vn 0.519785 0.854297 0
vn 0.238519 0.454208 0.858373
vn -0.256296 -0.416619 0.872205
vn -0.458802 -0.888539 0
vn -0.256296 -0.416619 -0.872205
vn 0.238519 0.454208 -0.858373
vn 0 1 0
vn 0 0.45482 0.890583
vn 0 -0.561177 0.827696
vn 0 -1 0
vn 0 -0.561177 -0.827696
vn 0 0.45482 -0.890583
vn -0.519785 0.854297 0
vn -0.238519 0.454208 0.858373
vn 0.256296 -0.416619 0.872205
vn 0.458802 -0.888539 0
vn 0.256296 -0.416619 -0.872205
vn -0.238519 0.454208 -0.858373
vn -0.877456 0.479656 0
vn -0.432754 0.273925 0.858888
vn 0.428972 -0.231752 0.873083
vn 0.841188 -0.540743 0
vn 0.428972 -0.231753 -0.873083
vn -0.432754 0.273925 -0.858888
vn -1 0 0
vn -0.565746 0 0.824579
vn 0.415212 0 0.909725
vn 1 0 0
vn 0.415212 0 -0.909724
vn -0.565746 0 -0.82458
vn -0.877456 -0.479656 0
vn -0.432754 -0.273925 0.858888
vn 0.428972 0.231753 0.873083
vn 0.841188 0.540744 0
vn 0.428972 0.231753 -0.873083
vn -0.432754 -0.273925 -0.858888
vn -0.519785 -0.854297 0
vn -0.238519 -0.454208 0.858373
vn 0.256296 0.416619 0.872205
vn 0.458802 0.888539 0
vn 0.256296 0.416619 -0.872205
vn -0.238519 -0.454208 -0.858373
vn 0 -1 0
vn 0 -0.45482 0.890583
vn 0 0.561177 0.827696
vn 0 1 0
vn 0 0.561177 -0.827696
vn 0 -0.45482 -0.890583
vn 0.519785 -0.854297 0
vn 0.238519 -0.454208 0.858373
vn -0.256296 0.416619 0.872205
vn -0.458802 0.888539 0
vn -0.256296 0.416619 -0.872205
vn 0.238519 -0.454208 -0.858373
vn 0.877456 -0.479656 0
vn 0.432754 -0.273925 0.858888
vn -0.428972 0.231753 0.873083
vn -0.841188 0.540743 0
vn -0.428972 0.231752 -0.873083
vn 0.432754 -0.273925 -0.858888

# Number of texture vertices: 288
vt 0 0
vt 1 0
vt 0 1
vt 1 1
vt 1 0
vt 1 1
vt 0 0
vt 0 1
vt 1 1
vt 1 0
vt 0 1
vt 0 0
vt 0 1
vt 1 1
vt 0 0
vt 1 0
vt 1 0
vt 1 1
vt 0 0
vt 0 1
vt 1 1
vt 1 0
vt 0 1
vt 0 0
vt 1 0
vt 1 1
vt 0 0
vt 0 1
vt 1 1
vt 1 0
vt 0 1
vt 0 0
vt 1 0
vt 1 1
vt 0 0
vt 0 1
vt 1 1
vt 1 0
vt 0 1
vt 0 0
vt 1 0
vt 1 1
vt 0 0
vt 0 1
vt 1 1
vt 1 0
vt 0 1
vt 0 0
vt 0 0
vt 1 0
vt 0 1
vt 1 1
vt 1 0
vt 1 1
vt 0 0
vt 0 1
vt 1 0
vt 1 1
vt 0 0
vt 0 1
vt 1 0
vt 1 1
vt 0 0
vt 0 1
vt 1 0
vt 1 1
vt 0 0
vt 0 1
vt 1 0
vt 1 1
vt 0 0
vt 0 1
vt 0 0
vt 1 0
vt 0 1
vt 1 1
vt 1 0
vt 1 1
vt 0 0
vt 0 1
vt 1 0
vt 1 1
vt 0 0
vt 0 1
vt 1 0
vt 1 1
vt 0 0
vt 0 1
vt 1 0
vt 1 1
vt 0 0
vt 0 1
vt 1 0
vt 1 1
vt 0 0
vt 0 1
vt 0 0
vt 1 0
vt 0 1
vt 1 1
vt 1 0
vt 1 1
vt 0 0
vt 0 1
vt 1 0
vt 1 1
vt 0 0
vt 0 1
vt 1 0
vt 1 1
vt 0 0
vt 0 1
vt 1 0
vt 1 1
vt 0 0
vt 0 1
vt 1 0
vt 1 1
vt 0 0
vt 0 1
vt 0 0
vt 1 0
vt 0 1
vt 1 1
vt 1 0
vt 1 1
vt 0 0
vt 0 1
vt 1 0
vt 1 1
vt 0 0
vt 0 1
vt 1 0
vt 1 1
vt 0 0
vt 0 1
vt 1 0
vt 1 1
vt 0 0
vt 0 1
vt 1 0
vt 1 1
vt 0 0
vt 0 1
vt 0 0
vt 1 0
vt 0 1
vt 1 1
vt 1 0
vt 1 1
vt 0 0
vt 0 1
vt 1 0
vt 1 1
vt 0 0
vt 0 1
vt 1 0
vt 1 1
vt 0 0
vt 0 1
vt 1 0
vt 1 1
vt 0 0
vt 0 1
vt 1 0
vt 1 1
vt 0 0
vt 0 1
vt 0 0
vt 1 0
vt 0 1
vt 1 1
vt 1 0
vt 1 1
vt 0 0
vt 0 1
vt 1 0
vt 1 1
vt 0 0
vt 0 1
vt 1 0
vt 1 1
vt 0 0
vt 0 1
vt 1 0
vt 1 1
vt 0 0
vt 0 1
vt 1 0
vt 1 1
vt 0 0
vt 0 1
vt 0 0
vt 1 0
vt 0 1
vt 1 1
vt 1 0
vt 1 1
vt 0 0
vt 0 1
vt 1 0
vt 1 1
vt 0 0
vt 0 1
vt 1 0
vt 1 1
vt 0 0
vt 0 1
vt 1 0
vt 1 1
vt 0 0
vt 0 1
vt 1 0
vt 1 1
vt 0 0
vt 0 1
vt 0 0
vt 1 0
vt 0 1
vt 1 1
vt 1 0
vt 1 1
vt 0 0
vt 0 1
vt 1 0
vt 1 1
vt 0 0
vt 0 1
vt 1 0
vt 1 1
vt 0 0
vt 0 1
vt 1 0
vt 1 1
vt 0 0
vt 0 1
vt 1 0
vt 1 1
vt 0 0
vt 0 1
vt 0 0
vt 1 0
vt 0 1
vt 1 1
vt 1 0
vt 1 1
vt 0 0
vt 0 1
vt 1 0
vt 1 1
vt 0 0
vt 0 1
vt 1 0
vt 1 1
vt 0 0
vt 0 1
vt 1 0
vt 1 1
vt 0 0
vt 0 1
vt 1 0
vt 1 1
vt 0 0
vt 0 1
vt 0 0
vt 1 0
vt 0 1
vt 1 1
vt 1 0
vt 1 1
vt 0 0
vt 0 1
vt 1 0
vt 1 1
vt 0 0
vt 0 1
vt 1 0
vt 1 1
vt 0 0
vt 0 1
vt 1 0
vt 1 1
vt 0 0
vt 0 1
vt 1 0
vt 1 1
vt 0 0
vt 0 1

g part160 
usemtl Texture_1
# Number of Polygons: 72
f 1/1/1 2/5/2 3/9/3 4/13/4 
f 2/7/2 5/17/5 6/21/6 3/11/3 
f 5/19/5 7/25/7 8/29/8 6/23/6 
f 7/27/7 9/33/9 10/37/10 8/31/8 
f 9/35/9 11/41/11 12/45/12 10/39/10 
f 11/43/11 1/2/1 4/14/4 12/47/12 
f 13/49/13 14/53/14 2/6/2 1/3/1 
f 14/55/14 15/57/15 5/18/5 2/8/2 
f 15/59/15 16/61/16 7/26/7 5/20/5 
f 16/63/16 17/65/17 9/34/9 7/28/7 
f 17/67/17 18/69/18 11/42/11 9/36/9 
f 18/71/18 13/50/13 1/4/1 11/44/11 
f 19/73/19 20/77/20 14/54/14 13/51/13 
f 20/79/20 21/81/21 15/58/15 14/56/14 
f 21/83/21 22/85/22 16/62/16 15/60/15 
f 22/87/22 23/89/23 17/66/17 16/64/16 
f 23/91/23 24/93/24 18/70/18 17/68/17 
f 24/95/24 19/74/19 13/52/13 18/72/18 
f 25/97/25 26/101/26 20/78/20 19/75/19 
f 26/103/26 27/105/27 21/82/21 20/80/20 
f 27/107/27 28/109/28 22/86/22 21/84/21 
f 28/111/28 29/113/29 23/90/23 22/88/22 
f 29/115/29 30/117/30 24/94/24 23/92/23 
f 30/119/30 25/98/25 19/76/19 24/96/24 
f 31/121/31 32/125/32 26/102/26 25/99/25 
f 32/127/32 33/129/33 27/106/27 26/104/26 
f 33/131/33 34/133/34 28/110/28 27/108/27 
f 34/135/34 35/137/35 29/114/29 28/112/28 
f 35/139/35 36/141/36 30/118/30 29/116/29 
f 36/143/36 31/122/31 25/100/25 30/120/30 
f 37/145/37 38/149/38 32/126/32 31/123/31 
f 38/151/38 39/153/39 33/130/33 32/128/32 
f 39/155/39 40/157/40 34/134/34 33/132/33 
f 40/159/40 41/161/41 35/138/35 34/136/34 
f 41/163/41 42/165/42 36/142/36 35/140/35 
f 42/167/42 37/146/37 31/124/31 36/144/36 
f 43/169/43 44/173/44 38/150/38 37/147/37 
f 44/175/44 45/177/45 39/154/39 38/152/38 
f 45/179/45 46/181/46 40/158/40 39/156/39 
f 46/183/46 47/185/47 41/162/41 40/160/40 
f 47/187/47 48/189/48 42/166/42 41/164/41 
f 48/191/48 43/170/43 37/148/37 42/168/42 
f 49/193/49 50/197/50 44/174/44 43/171/43 
f 50/199/50 51/201/51 45/178/45 44/176/44 
f 51/203/51 52/205/52 46/182/46 45/180/45 
f 52/207/52 53/209/53 47/186/47 46/184/46 
f 53/211/53 54/213/54 48/190/48 47/188/47 
f 54/215/54 49/194/49 43/172/43 48/192/48 
f 55/217/55 56/221/56 50/198/50 49/195/49 
f 56/223/56 57/225/57 51/202/51 50/200/50 
f 57/227/57 58/229/58 52/206/52 51/204/51 
f 58/231/58 59/233/59 53/210/53 52/208/52 
f 59/235/59 60/237/60 54/214/54 53/212/53 
f 60/239/60 55/218/55 49/196/49 54/216/54 
f 61/241/61 62/245/62 56/222/56 55/219/55 
f 62/247/62 63/249/63 57/226/57 56/224/56 
f 63/251/63 64/253/64 58/230/58 57/228/57 
f 64/255/64 65/257/65 59/234/59 58/232/58 
f 65/259/65 66/261/66 60/238/60 59/236/59 
f 66/263/66 61/242/61 55/220/55 60/240/60 
f 67/265/67 68/269/68 62/246/62 61/243/61 
f 68/271/68 69/273/69 63/250/63 62/248/62 
f 69/275/69 70/277/70 64/254/64 63/252/63 
f 70/279/70 71/281/71 65/258/65 64/256/64 
f 71/283/71 72/285/72 66/262/66 65/260/65 
f 72/287/72 67/266/67 61/244/61 66/264/66 
f 4/15/4 3/10/3 68/270/68 67/267/67 
f 3/12/3 6/22/6 69/274/69 68/272/68 
f 6/24/6 8/30/8 70/278/70 69/276/69 
f 8/32/8 10/38/10 71/282/71 70/280/70 
f 10/40/10 12/46/12 72/286/72 71/284/71 
f 12/48/12 4/16/4 67/268/67 72/288/72 
